<svg xmlns="http://www.w3.org/2000/svg" width="80" height="80" viewBox="0 0 80 80">
    <g fill="none" fill-rule="evenodd">
        <g fill="#CFDDF2">
            <g>
                <path d="M65.791 29.378c.093.281.15.57.166.864.003.034.012.066.022.097.01.037.021.073.021.111V67.3c0 3.695-2.971 6.7-6.625 6.7h-39.75C15.971 74 13 70.995 13 67.3V13.7c0-3.695 2.971-6.7 6.625-6.7h23.188c.037 0 .073.01.109.022.03.009.062.018.096.022.295.016.58.077.858.17l.099.033c.072.023.144.046.212.078.351.164.686.368.97.657l19.876 20.1c.285.288.487.626.649.981.03.073.054.147.078.221l.031.094zM56 27l-9-9v9h9zM20 67h40V33H43c-1.843 0-3.003-1.04-3.003-2.894V13H20v54zm17-27v6h-6v7h6v6h7v-6h6v-7h-6v-6h-7z" transform="translate(-187.000000, -824.000000) translate(77.000000, 784.000000) translate(110.000000, 40.000000)"/>
            </g>
        </g>
    </g>
</svg>
