<svg width="18" height="18" viewBox="0 0 18 18" xmlns="http://www.w3.org/2000/svg">
    <g fill="none" fill-rule="evenodd">
        <path d="M16 .5c.414 0 .79.168 1.06.44.272.27.44.646.44 1.06v14.519a.978.978 0 0 1-.981.981H2c-.414 0-.79-.168-1.06-.44A1.495 1.495 0 0 1 .5 16V2c0-.414.168-.79.44-1.06C1.21.667 1.585.5 2 .5z" stroke="#BAC1C9" fill="#E0E5E9"/>
        <path d="m13.375 4 .625.625L9.625 9 14 13.375l-.625.625L9 9.625 4.625 14 4 13.375 8.375 9 4 4.625 4.625 4 9 8.375 13.375 4z" fill="#525C68"/>
    </g>
</svg>
