<svg xmlns="http://www.w3.org/2000/svg" width="16" height="16" viewBox="0 0 16 16">
    <g fill="none" fill-rule="evenodd">
        <g>
            <g>
                <g>
                    <g transform="translate(-221 -371) translate(60 258) translate(87 109) translate(74 4)">
                        <rect width="15" height="15" x=".5" y=".5" fill="#4E95F5" stroke="#176DE2" rx="2"/>
                        <path fill="#FFF" d="M13.078 3.833c.037.033.072.067.104.104.469.538.469 1.338 0 1.876l-5.455 6.25c-.394.451-1.08.498-1.532.104-.037-.033-.072-.067-.104-.104-.063-.073-.118-.15-.164-.23l-3.114-3.7c-.47-.559-.47-1.374 0-1.932l.005-.007c.38-.451 1.055-.51 1.507-.13.047.04.09.084.13.13l2.513 2.987 4.577-5.243c.395-.452 1.08-.499 1.533-.105z"/>
                    </g>
                </g>
            </g>
        </g>
    </g>
</svg>
