<svg width="24" height="24" viewBox="0 0 24 24" xmlns="http://www.w3.org/2000/svg">
    <g fill-rule="nonzero" fill="none">
        <path d="M16.364 5h2.909c.401 0 .727.313.727.7v12.6c0 .387-.326.7-.727.7h-2.91a.714.714 0 0 1-.727-.7V5.7c0-.387.326-.7.728-.7z" fill="#525C68"/>
        <path d="M10.545 8.5h2.91c.401 0 .727.313.727.7v9.1c0 .387-.326.7-.727.7h-2.91a.714.714 0 0 1-.727-.7V9.2c0-.387.326-.7.727-.7zM4.727 12h2.91c.401 0 .727.313.727.7v5.6c0 .387-.326.7-.728.7H4.727A.714.714 0 0 1 4 18.3v-5.6c0-.387.326-.7.727-.7z" fill="#34ADD4"/>
    </g>
</svg>
